<svg width="39" height="39" fill="none" xmlns="http://www.w3.org/2000/svg"><path d="M20.837 22.448h4.843c1.377 0 2.249-.757 2.249-1.973 0-1.148-.872-1.974-2.25-1.974h-4.842c-.16 0-.298.138-.298.275v3.397c.023.16.138.275.298.275zm0 7.826h5.003c1.538 0 2.456-.78 2.456-2.157 0-1.194-.872-2.157-2.456-2.157h-5.003c-.16 0-.298.137-.298.275v3.74c.023.184.138.3.298.3z" fill="#34313F"/><path d="M38.554.692l-14.32 14.275h2.34c3.65 0 5.807 2.295 5.807 4.796 0 1.974-1.331 3.42-2.754 4.062-.23.092-.23.413.023.505 1.652.643 2.823 2.364 2.823 4.384 0 2.845-1.905 5.117-5.6 5.117H16.729c-.16 0-.298-.137-.298-.275v-10.81L.71 38.399c-.207.207-.07.574.229.574h37.798a.255.255 0 00.252-.252V.899c.07-.253-.252-.39-.436-.207z" fill="#34313F"/></svg>