<svg width="76" height="38" fill="none" xmlns="http://www.w3.org/2000/svg"><path d="M8.543 13.545V2.95c0-.392.037-.628.67-.628h8.527c1.49 0 2.309 1.335 2.905 3.846l.484 2.002h1.452c.26-5.69.483-8.163.483-8.163s-3.648.432-5.808.432H6.346L.5.24V1.89l1.974.392c1.377.275 1.712.589 1.824 1.923 0 0 .112 3.925.112 10.4 0 6.475-.112 10.36-.112 10.36 0 1.178-.447 1.61-1.824 1.885L.5 27.243v1.647l5.847-.196h9.755c2.197 0 7.298.196 7.298.196.112-1.413.857-7.81.969-8.515H22.99l-1.452 3.492c-1.155 2.747-2.83 2.944-4.692 2.944h-5.549c-1.862 0-2.755-.785-2.755-2.473V15.39s4.058 0 5.473.118c1.043.079 1.675.393 2.01 1.923l.448 2.041h1.6l-.111-5.142.223-5.18h-1.6l-.521 2.277c-.336 1.49-.56 1.766-2.012 1.923-1.638.196-5.51.157-5.51.157v.039zm22.08-9.497c-.52 2.433-1.042 4.317-2.867 5.573-1.117.784-2.234 1.059-2.68 1.098v1.492h3.314v12.048c0 3.375 2.122 5.024 4.952 5.024 2.197 0 4.468-.981 5.25-3.023l-.782-1.06c-.373.668-1.564 1.65-3.053 1.65-1.638 0-2.532-1.179-2.532-4.16V12.053l5.511.432.298-2.669-5.809.236V4.087l-1.602-.039zM42.39 22.58l-1.415.039c.075.863.112 1.962.112 2.983 0 1.06-.037 2.04-.112 2.511 0 0 2.83 1.098 5.697 1.098 3.873 0 6.964-1.962 6.964-5.808 0-6.592-9.384-5.611-9.384-10.046 0-1.845 1.564-2.551 3.277-2.551 1.34 0 2.457.51 2.68 1.256l.932 2.943 1.378-.078c.112-1.57.186-3.375.41-4.827-1.192-.55-3.687-.864-5.25-.864-3.65 0-6.591 1.688-6.591 5.455 0 6.554 9.16 5.22 9.16 10.047 0 1.726-1.006 2.943-3.277 2.943-2.085 0-3.128-1.138-3.537-2.276L42.39 22.58zm22.443 4.534c-2.156 6.346-4.795 7.99-7.173 7.99-1.004 0-1.487-.47-1.636-1.213l-.558-3.056-1.561.078c-.297 1.802-.595 3.8-1.003 5.445.93.744 2.49 1.136 3.717 1.136 2.565 0 6.467-.353 10.034-9.284l5.985-14.885c.483-1.215.669-1.332 2.081-1.92l.78-.313V9.72l-3.53.196-3.791-.196v1.37l.965.314c.966.314 1.413.705 1.413 1.41 0 .353-.112.705-.298 1.253-.557 1.49-4.014 10.343-4.942 12.223l.928-.353c-1.636-4.27-4.125-11.4-4.497-12.613a2.043 2.043 0 0 1-.111-.628c0-.626.408-1.136 1.3-1.331l1.227-.274V9.721l-5.092.196-4.051-.196v1.371l.669.235c.929.313 1.152.588 1.71 1.959 3.083 7.443 4.534 11.516 6.503 16.844l.93-3.016z" fill="#F27224"/></svg>