<svg xmlns="http://www.w3.org/2000/svg" fill="none" viewBox="0 0 512 147"><path fill="#39B75D" d="M169 37.5a40.5 40.5 0 0 0-23.5-6.7h-28.8v88.6h17.9v-32h10a42.1 42.1 0 0 0 23.7-7A23.9 23.9 0 0 0 178.7 59c0-9.8-3.2-17-9.7-21.4Zm-13.3 31.7a15.7 15.7 0 0 1-10.4 3.4h-10.7v-27h10.5c4-.2 7.8 1 11 3.4a13.2 13.2 0 0 1 4 10.5 13.1 13.1 0 0 1-4.4 9.7Zm41.3-1.8-5.4-8.2h-9v60.2h17.8V82a32 32 0 0 1 9.6-6 25 25 0 0 1 9.3-1.8v-15c-4.7-.2-9.3.7-13.6 2.5a41.1 41.1 0 0 0-8.7 5.7Zm48.8-8h-17.9v60h17.9v-60Zm-9-28.7a9.2 9.2 0 0 0-7 3 10 10 0 0 0-2.7 7.1 9.9 9.9 0 0 0 2.8 7.4 9.2 9.2 0 0 0 6.9 2.9 9.7 9.7 0 0 0 7.1-3 9.6 9.6 0 0 0 3-7.3 10.1 10.1 0 0 0-10.1-10.1Zm56.5 26.4c-4 0-8 .9-11.7 2.4a32.5 32.5 0 0 0-10 6l-4.7-6.3h-9.3v60.2h18v-42a37.3 37.3 0 0 1 6.4-3.7 16.7 16.7 0 0 1 6.5-1.5 9 9 0 0 1 6.9 2.7 11 11 0 0 1 2.5 7.6v36.8h17.9V82a29 29 0 0 0-5.2-17.6c-3.5-4.8-9.2-7.2-17.3-7.2Zm100.1 2.3h-17.9v60h17.9v-60Zm36-.2V56c-.2-2.5.5-5 1.9-7.2a7 7 0 0 1 6-2.7c1.2 0 2.3.2 3.4.5 1.3.3 2.5.8 3.7 1.3l5.1-12.8a17.2 17.2 0 0 0-6-3 23.1 23.1 0 0 0-7.3-1.3 26.4 26.4 0 0 0-18 6 21.1 21.1 0 0 0-7 17v5.5H402v15.6h9.3v44.6h18V75h16.6l-5-15.7h-11.5Z"/><path fill="#39B75D" d="M490.8 59.2 478.4 95a1163 1163 0 0 0-6.4-18l-6.6-17.9h-18.9l20.3 52c1.3 3.2 1.3 6.9 0 10.1a13 13 0 0 1-6.2 6.5 79.9 79.9 0 0 1-9.1 4.3l6.2 14.7a43.3 43.3 0 0 0 15.3-7.4c4.5-3 8-7.5 10-12.5l26.3-67.7h-18.5ZM384.4 30.8a9.3 9.3 0 0 0-7 3 9.8 9.8 0 0 0-2.9 7 9.7 9.7 0 0 0 2.9 7.2 9.4 9.4 0 0 0 7 2.8 10.1 10.1 0 0 0 9.6-6 9.9 9.9 0 0 0-2.3-11 10 10 0 0 0-7.3-3Zm-24.7 72.7c-1 .3-2.2.4-3.3.4a7 7 0 0 1-6.1-2.7 12.1 12.1 0 0 1-2-7.2V75.6h16l-5.1-15.5h-10.9V40.8h-17.8v18.4H321v15.6h9.4v21.6a21.2 21.2 0 0 0 6.9 17 26.4 26.4 0 0 0 18 6c2.5-.1 5-.5 7.3-1.4a17.3 17.3 0 0 0 6-3l-5.1-12.9a29 29 0 0 1-3.9 1.3Zm-336-56.1c.8-5 1.5-8 1.8-9.5 2-10.5 0-17.7-5.3-18.7-2.8-.5-4.7 1.2-6 6.1L3.7 65.7 13 53a13.9 13.9 0 0 1 10.5-5.6Zm-6.8 14.2a10.7 10.7 0 0 1 14-2.8c.4 0 7.4 5.3 11.7 8.5h8c5 0 10-1.2 14.4-3.4a11.9 11.9 0 0 0 4.8-4.7c.5-1.1.6-2.4.2-3.7a3.7 3.7 0 0 0-2-2.1 8.2 8.2 0 0 0-3.7-.7H23.7a8.6 8.6 0 0 0-6.6 3.4L.8 78.3l-.6 1.5a4.6 4.6 0 0 0 .8 3.6l15.9-21.8Z"/><path fill="#39B75D" d="M14.5 78.9a10.7 10.7 0 0 1 15-2.3l13.5 10a13.6 13.6 0 0 1 4 4.4 9 9 0 0 1 1 2.8c1.4.5 2.7.8 4 1 2.3.3 4.5 0 6.6-.9a5.4 5.4 0 0 0 2.6-3 3.7 3.7 0 0 0-.4-3 8.6 8.6 0 0 0-2.6-2.7L28.7 63.5l-.5-.3a5.5 5.5 0 0 0-2.8-.8 5.5 5.5 0 0 0-4 1.7l-.5.6L.7 92.4a4.5 4.5 0 0 0 .2 5L14.5 79Zm26-31.5h17.3a23 23 0 0 0-1.2-2.3 35.6 35.6 0 0 0-7-8.5 8.4 8.4 0 0 0-9.3-2 5.7 5.7 0 0 0-2 7.8l2.2 5Z"/><path fill="#39B75D" d="M66.8 68.7a38.2 38.2 0 0 1-13.7 3.6h-3.7l7.4 5.5L61 81a14 14 0 0 1 4 4.5 8.8 8.8 0 0 1 .8 6.9 10.4 10.4 0 0 1-5.1 6A17.4 17.4 0 0 1 50 99.5l-2.7-.6a10 10 0 0 1-4.7 5 16.5 16.5 0 0 1-9.4 1.5 35 35 0 0 1-9.4-3 2.6 2.6 0 0 1-1-3.6 2.5 2.5 0 0 1 3-1 31 31 0 0 0 8 2.5c2.1.3 4.4 0 6.4-.9a5.3 5.3 0 0 0 2.6-3 3.7 3.7 0 0 0-.4-3 7 7 0 0 0-1.8-2.1L26.4 80.8a5.5 5.5 0 0 0-7.3.7l-.4.4-17.7 24c-.7.9-1 2-1 3a5 5 0 0 0 1.7 3.7 247.6 247.6 0 0 0 25.3 18l2.8 1.6a33.1 33.1 0 0 0 48.7-29.4 34 34 0 0 0-3-13.7l-8.7-20.3ZM42.6 4a3.2 3.2 0 0 0-3 3.4l.4 12a2.8 2.8 0 0 0 2.7 2.6 2.7 2.7 0 0 0 2.8-2.6c0-3 .6-9.3.5-12.3A3.2 3.2 0 0 0 42.6 4ZM70 12.5a3.3 3.3 0 0 0-4.5 1L59 23.7a2.7 2.7 0 0 0 4.4 3.1 210 210 0 0 0 7.4-9.8 3.2 3.2 0 0 0-.8-4.5Zm17.5 22.7a3.3 3.3 0 0 0-4.2-1.8l-11 4.7a2.7 2.7 0 0 0 1.8 5.1c2.8-.9 9-2.7 11.8-3.7a3.2 3.2 0 0 0 1.6-4.3Z"/></svg>