<svg fill="none" height="130" width="125" xmlns="http://www.w3.org/2000/svg"><rect fill="#fff" height="129.249" rx="19" width="123.947" x=".356" y=".706"/><path d="m30.542 71.013h2.698l-4.675-12.7h-3.226l-4.676 12.7h2.699l.922-2.62h5.335zm-5.484-4.826 1.898-5.387 1.89 5.388h-3.788zm14.848-4.385c-1.196 0-2.171.43-2.804 1.178v-1.002h-2.532v9.035h2.53v-4.984c.018-1.67.968-2.197 2.014-2.197.87 0 1.617.44 1.617 1.644v5.537h2.54v-6.083c0-2.004-1.196-3.13-3.366-3.13zm11.982-4.29v5.555c-.536-.817-1.582-1.265-2.769-1.265-2.373 0-4.35 1.758-4.35 4.71 0 2.954 1.968 4.712 4.35 4.712 1.23 0 2.32-.501 2.84-1.389l.06 1.178h2.4v-13.5h-2.531zm-2.189 11.611c-1.344 0-2.4-.993-2.4-2.61 0-1.626 1.056-2.62 2.4-2.62 1.336 0 2.391 1.038 2.391 2.62s-1.046 2.61-2.39 2.61zm22.225-7.321c-1.195 0-2.162.448-2.795 1.353-.475-.879-1.459-1.353-2.769-1.353-1.107 0-2.021.44-2.619 1.239v-1.063h-2.521v9.035h2.522v-4.966c0-1.696.818-2.215 1.697-2.215.8 0 1.45.475 1.45 1.556v5.625h2.557v-5.098c0-1.564.8-2.083 1.705-2.083.756 0 1.424.466 1.424 1.53v5.65h2.532v-6.371c0-1.855-1.248-2.84-3.182-2.84zm9.6 9.387c2.9 0 4.957-1.75 4.957-4.703 0-2.935-2.047-4.693-4.957-4.693-2.891 0-4.948 1.758-4.948 4.693 0 2.953 2.074 4.703 4.948 4.703zm-.026-2.013c-1.415 0-2.408-1.073-2.408-2.69s.993-2.69 2.408-2.69c1.468 0 2.47 1.073 2.47 2.69s-1.002 2.69-2.47 2.69zm9.1-5.863-.08-1.336h-2.398v9.036h2.549v-4.404c0-1.916.914-2.478 2.83-2.478v-2.259c-1.257 0-2.408.677-2.9 1.441zm12.571 3.05c-.009-3.164-1.916-4.579-4.474-4.579-2.786 0-4.746 1.74-4.746 4.711 0 2.97 1.907 4.694 4.825 4.694 2.031 0 3.657-1.046 4.254-2.874l-2.32-.343c-.343.8-1.046 1.221-1.951 1.221-1.204 0-2.206-.72-2.312-2.223h6.697zm-4.456-2.786c1.08 0 1.889.642 1.969 1.907h-4.193c.202-1.327 1.02-1.907 2.224-1.907z" fill="#000"/></svg>