<svg fill="none" height="42" width="42" xmlns="http://www.w3.org/2000/svg"><path d="m13.87 31.83c.32-.15.65-.27.98-.4.38-.14.76-.28 1.14-.4.47-.15.95-.27 1.44-.38a19.98 19.98 0 0 1 1.98-.3 57.08 57.08 0 0 1 -1.24 3.5l.04.67a14.62 14.62 0 0 1 5.58 0c0-.23.01-.46.04-.67a67.75 67.75 0 0 1 -1.24-3.5c.66.06 1.34.15 1.98.3a18.08 18.08 0 0 1 2.58.77c.34.12.66.26.98.4a17.55 17.55 0 0 1 6.1 4.5 20.18 20.18 0 0 0 7.02-15.32 20.25 20.25 0 1 0 -33.48 15.33 17.55 17.55 0 0 1 6.1-4.5z" fill="#a0dbe8"/><path d="m15.2 35.5a14.07 14.07 0 0 1 3-.95 5.69 5.69 0 0 0 -.04-.67 69.24 69.24 0 0 0 1.24-3.51c-.67.07-1.34.16-1.99.31a18.05 18.05 0 0 0 -2.57.77l1.47.36-1.1 3.68zm-3.48 2.16c.04-.37.06-.75.06-1.14a.42.42 0 0 1 .42-.42h.36l1.3-4.29a17.55 17.55 0 0 0 -6.1 4.5c.94.83 1.97 1.56 3.05 2.19.3-.28.6-.57.91-.84zm16.4-5.83 1.3 4.28h.36a.42.42 0 0 1 .42.42c0 .4.02.77.05 1.15.3.27.62.54.9.83a19.58 19.58 0 0 0 3.05-2.18 17.38 17.38 0 0 0 -6.08-4.5zm-2.47-.04 1.47-.37c-.38-.13-.75-.27-1.13-.39-.47-.15-.96-.27-1.44-.38a20.12 20.12 0 0 0 -1.99-.3 57.1 57.1 0 0 0 1.24 3.5l-.04.67a13.83 13.83 0 0 1 3 .95l-1.1-3.68z" fill="#525353"/><path d="m20.99 36.11h2.85a12.23 12.23 0 0 1 -.06-1.56 14.63 14.63 0 0 0 -5.58 0c0 .53-.02 1.04-.07 1.56zm-10.17 2.39c.23.14.47.27.72.4.08-.4.14-.82.18-1.24z" fill="#000"/><path d="m15.01 36.11h3.13c.06-.52.08-1.05.07-1.56-1.05.2-2.05.53-3 .94zm15.25 1.55c.04.42.11.84.2 1.24.23-.12.46-.25.7-.4-.3-.28-.59-.57-.9-.84zm-3.29-1.55-.19-.62a14.06 14.06 0 0 0 -2.99-.94c-.01.53.01 1.04.07 1.56z" fill="#000"/><path d="m15.01 36.11.2-.62 1.11-3.7-1.47-.37c-.34.12-.66.26-.98.4l-1.3 4.3h2.44zm11.77-.62.2.62h2.43l-1.3-4.28c-.31-.15-.64-.27-.98-.4l-1.47.36z" fill="#aa9678"/><path d="m12.61 36.98.05-.03h-.04v.03z" fill="#c0b098"/><path d="m20.99 36.95h-8.34l-.04.03a12 12 0 0 1 -.3 2.32 20.1 20.1 0 0 0 8.68 1.95z" fill="#c0b098"/><path d="m29.37 36.95h-.04l.04.03z" fill="#aa9678"/><path d="m29.33 36.95h-8.33v4.3c3.1 0 6.05-.7 8.68-1.96a12.15 12.15 0 0 1 -.31-2.31c0-.02-.01-.03-.03-.03z" fill="#aa9678"/><path d="m30.26 37.66a10.71 10.71 0 0 1 -.05-1.14.42.42 0 0 0 -.42-.42h-17.6a.42.42 0 0 0 -.42.42 12.3 12.3 0 0 1 -.24 2.39l.76.39a12.17 12.17 0 0 0 .31-2.32v-.03h16.76v.03c.03.8.13 1.56.3 2.32l.78-.4c-.08-.4-.14-.82-.18-1.24z" fill="#8b7460"/><path d="m26.79 33.21c-.07-.06-.13-.14-.2-.22z" fill="#525353"/><path d="m27.26 33.69s-.2-.17-.48-.46c.27.3.48.46.48.46z" fill="#aa9678"/><path d="m34.47 16.5s0-.02 0 0a6.84 6.84 0 0 0 -.53-.65l-.24-.26-.1-.08a1.38 1.38 0 0 0 -.16-.13v1.88l.72 3.3.03.09.5.57h.52v-.15c0-1.57-.26-3.06-.71-4.47z" fill="#bbbcbd"/><path d="m34.24 20.88v.03l.01.24v.08l-.01.23v.02l-.04.25.5-.56-.5-.56z" fill="#676a6a"/><path d="m34.23 21.51v-.63l-.04-.24-.03-.08a1.7 1.7 0 0 0 -.19-.42l-.03-.04-.06-.08a.37.37 0 0 0 -.11-.1l-.04-.03-.1-.05-.04-.01a.48.48 0 0 0 -.15-.03c-.05 0-.09.01-.14.03l-.04.01-.1.05-.04.03-.1.1-.07.08c-.02.01-.03.02-.03.04-.08.12-.15.25-.2.41v.02a1.1 1.1 0 0 0 -.04.23l-.02.06-.02.27v.04c0 .77.36 1.4.8 1.4.08 0 .15-.02.23-.05l.04-.01.08-.05.04-.04c.05-.03.07-.07.11-.11l.07-.1.04-.06.07-.14.03-.05.06-.2zm-.76-.51c-.17 0-.31-.23-.31-.53 0-.28.14-.52.31-.52s.31.23.31.52c0 .3-.15.53-.31.53z" fill="#000"/><path d="m33.47 21c.17 0 .31-.24.31-.53s-.14-.52-.31-.52-.31.23-.31.52c0 .3.14.53.31.53z" fill="#fff"/><path d="m32.72 20.55a1.71 1.71 0 0 1 .21-.45l.07-.08a.37.37 0 0 1 .1-.1l.05-.02c.02-.03.06-.05.1-.06l.03-.01a.48.48 0 0 1 .15-.03l.15.03.04.01.1.05c0 .02.02.02.03.03l.11.1.07.08c.01.01.03.02.03.04.08.12.14.25.18.42l-.71-3.3-.71 3.3z" fill="#909393"/><path d="m23.89 21.16c0-.07 0-.13-.02-.2l-.03-.19a.67.67 0 0 0 -.05-.17.94.94 0 0 0 -.07-.18l-.08-.16a1.77 1.77 0 0 0 -.33-.43 2.16 2.16 0 0 0 -.6-.4 3.22 3.22 0 0 0 -.34-.1 1.67 1.67 0 0 0 -.74 0h-.01c-.12.03-.23.05-.34.1h-.01c-.1.03-.22.09-.31.15-.1.07-.19.14-.27.22h-.01a2.22 2.22 0 0 0 -.35.45l-.09.16v.01a.66.66 0 0 0 -.06.15c0 .01-.02.01-.02.03l-.04.14-.01.04-.03.15-.01.04-.01.2c0 .13.01.25.04.37v.01c.02.12.05.23.1.35a2.2 2.2 0 0 0 .4.6c.13.13.28.25.44.35l.16.08h.02c.05.03.1.04.14.05.02 0 .02 0 .03.02.05 0 .1.02.15.04h.04l.15.04.04.01.2.01c.27 0 .51-.05.74-.14l.33-.18a1.85 1.85 0 0 0 .68-.84c.1-.23.15-.48.15-.74v-.01l.01-.03zm-1.9-.23a.72.72 0 0 1 -.72-.71.72.72 0 0 1 .71-.72.72.72 0 0 1 .72.72.72.72 0 0 1 -.72.71z" fill="#000"/><path d="m21.98 20.93a.71.71 0 1 0 0-1.43.71.71 0 0 0 0 1.43z" fill="#fff"/><path d="m20.66 19.8 1.32-4.03v-.94a11.29 11.29 0 0 0 -2.25-.23l-.77.02a.29.29 0 0 0 -.1.02 11.02 11.02 0 0 0 -3.82 1 12.31 12.31 0 0 0 -2.84 1.81c-.23.2-.46.4-.68.62l-.12.13a13.13 13.13 0 0 0 -.6.63l-.11.15c-.2.23-.38.46-.56.69l-.04.05-.48.7-.1.14-.35.6h5.99z" fill="#bbbcbd"/><path d="m25.72 19.36c.01-.17.03-.31.03-.48 0-.21 0-.41.02-.63v-.65c0-.43-.02-.85-.04-1.28l-.01-.01-.01-.01a7.98 7.98 0 0 1 -.45-.26h-.01a.55.55 0 0 0 -.12-.07l-.08-.05-.02-.02a.3.3 0 0 1 -.07-.04c-.27-.15-.55-.27-.83-.39-.68-.28-1.6-.54-2.12-.66v.94l1.3 4.02c.14.13.27.27.35.43l.08.17a.63.63 0 0 1 .06.17l.06.18c.01.06.03.12.03.19a.98.98 0 0 1 0 .2v.01h1.6c.1-.58.19-1.17.23-1.76 0 0 0 .02 0 0z" fill="#e2dddb"/><path d="m23.9 26.9 1.02-1.03.57-.6a12.5 12.5 0 0 0 2.9-4.54 1.21 1.21 0 0 0 .04-.16v-.03l.04-.21.01-.17c-.15-.75-.43-1.5-.68-2.22v.01l-.02-.01-.15-.14-.45-.4a12.32 12.32 0 0 0 -1.47-1.07c.02.44.04.85.04 1.29v.64c0 .22-.02.43-.03.64l-.03.47v.05a19.14 19.14 0 0 1 -.23 1.77l-.19.89c-.39 1.59-1.18 3.02-1.83 4.5-.17.4-.34.8-.48 1.2l-.04.12.52-.54z" fill="#fbb040"/><path d="m20.68 19.8c.08-.08.17-.15.27-.22a1.36 1.36 0 0 1 .3-.16h.02c.1-.04.21-.08.34-.1h.01a1.68 1.68 0 0 1 .73 0h.01c.12.03.23.06.34.12.21.1.42.21.6.39l-1.32-4.02z" fill="#909393"/><path d="m20.22 21.9a2.66 2.66 0 0 1 -.11-.35v-.01a1.67 1.67 0 0 1 -.04-.37l.01-.2.02-.04.02-.15.02-.04.04-.14.01-.03.06-.15v-.01l.09-.17c.1-.16.21-.3.35-.44l-5.53 1.36h-.01l5.47 1.34a1.66 1.66 0 0 1 -.4-.6z" fill="#676a6a"/><path d="m32.65 20.86.01-.06c.02-.08.03-.16.06-.23v-.03l.71-3.3v-1.89a2.95 2.95 0 0 0 -1.87-.75c-.84 0-1.6.45-2.19 1.02a8.48 8.48 0 0 0 -1.52 2.18l-.05.11.36.33.8.75.36.37.38.39.47.5c.07.08.13.16.2.22l.57.64.06.07h1.64v-.31z" fill="#e2dddb"/><path d="m8.18 23.25.01-.04.34-.8.1-.22c.1-.22.2-.42.32-.62l.13-.26.08-.14.35-.6.1-.14c.15-.24.3-.47.48-.7l.04-.05a9.89 9.89 0 0 1 .56-.69l.12-.15c.19-.21.39-.43.6-.63l.11-.12c.22-.22.43-.42.68-.62a7.22 7.22 0 0 1 10.76-4.2 7.42 7.42 0 0 1 2.7 2.96s0 .01.02.01a.75.75 0 0 0 .05.1 12.32 12.32 0 0 1 1.93 1.46l.15.14a.4.4 0 0 1 .05-.1c.46-2.93 1.75-5.05 3.28-5.05 1.14 0 2.17 1.2 2.79 3.05v.01a9.1 9.1 0 0 1 .54.65l.03.08-.03-.1a14.21 14.21 0 0 0 -26.95 8.97v-.01a17.88 17.88 0 0 1 .66-2.19z" fill="#525353"/><path d="m34.68 21.19-.5.55c0 .07-.04.14-.06.2l-.03.06a.63.63 0 0 1 -.07.13l-.04.07-.06.1a.41.41 0 0 1 -.11.1l-.04.04-.08.06-.04.01a.44.44 0 0 1 -.23.05c-.45 0-.81-.62-.81-1.4h-1.63c.3.35.6.7.89 1.07l.01.01.85 1.05.04.06.78 1 .08.1.81 1.08v.01a14 14 0 0 0 .74-4.4z" fill="#fff"/><path d="m18.86 14.62.1-.01a11.23 11.23 0 0 1 3.02.2v.36-.36c.52.12 1.43.38 2.12.66a17.34 17.34 0 0 1 .92.45l.08.05.12.07h.01l.45.25.01.02.01.01a.76.76 0 0 0 -.05-.1s0 0-.01 0a7.34 7.34 0 0 0 -2.71-2.96 7.34 7.34 0 0 0 -3.78-1.08 7.32 7.32 0 0 0 -6.98 5.27 11.73 11.73 0 0 1 2.83-1.82 11.43 11.43 0 0 1 3.85-1zm10.53 1.01a3.24 3.24 0 0 1 2.18-1.02c.66 0 1.3.27 1.87.76l.17.13.09.08.24.26v-.02c-.63-1.84-1.64-3.04-2.79-3.04-1.52 0-2.82 2.1-3.27 5.04a7.8 7.8 0 0 1 1.5-2.19z" fill="#000"/><path d="m15.93 34.28.4.14a14.22 14.22 0 0 0 9.98-.24l.26-.1a5.12 5.12 0 0 0 .42-.2c.12-.04.24-.1.36-.17l-.08.02a5.7 5.7 0 0 1 -1.51-.02c-2.93-.41-3.57-1.83-3.48-3.29a7.43 7.43 0 0 1 -.65-.41c-2.25-1.63-3.58-3.37-3.58-3.37s1.74 1.33 4.32 2.34l.17.07c.12-.42.27-.82.39-1.17l.04-.13c.15-.4.3-.8.48-1.2.65-1.48 1.45-2.92 1.84-4.5l.19-.89h-1.6v.02c0 .27-.05.5-.14.74-.06.1-.11.23-.18.32-.13.2-.3.38-.51.51a3.8 3.8 0 0 1 -.32.18 1.98 1.98 0 0 1 -.75.15c-.06 0-.13 0-.2-.02l-.04-.01-.15-.03-.04-.01-.15-.04-.02-.01-.15-.06h-.01l-.17-.08a1.82 1.82 0 0 1 -.44-.35l-5.48-1.33h-5.97l-.08.13c-.04.08-.1.16-.13.26-.11.2-.22.41-.31.62l-.11.21-.34.81-.01.04a18.78 18.78 0 0 0 -.65 2.2 14.13 14.13 0 0 0 5.17 7.06c.06.06.14.1.21.15.4.29.82.55 1.25.78.57.35 1.16.64 1.77.88z" fill="#fff"/><path d="m25.73 29.86a2.48 2.48 0 0 0 -.04.44 4.77 4.77 0 0 0 .15 1.2 3.92 3.92 0 0 0 .51 1.12l.1.15.14.2.2.23c.25.3.47.46.47.46v.05l.09-.01a9.71 9.71 0 0 0 2.86-.85c.1-.04.19-.1.28-.13 3.25-1.58 5.97-4.36 5.97-4.36a17.8 17.8 0 0 1 -10.73 1.5z" fill="#9f2255"/><path d="m33.58 24.38-.78-1-.04-.06-.85-1.05-.02-.02a73.64 73.64 0 0 0 -.89-1.05l-.05-.07-.57-.63-.2-.22-.47-.51-.38-.4-.36-.35a21 21 0 0 0 -.8-.76l-.36-.32c.25.74.55 1.48.7 2.25l.1.58c.36 2.65-.5 4.4-1.85 6.68l-.3.5a5.14 5.14 0 0 0 -.62 1.47l-.1.45c2.66.43 6.65.51 10.74-1.5 0 0-.8-1.17-2.01-2.79a72.32 72.32 0 0 0 -.81-1.08.76.76 0 0 0 -.08-.1z" fill="#e2066f"/><path d="m27.26 33.69s-.2-.17-.48-.46l-.18-.23-.14-.2-.1-.15c-.1-.16-.19-.33-.28-.51a6.33 6.33 0 0 1 -.23-.61 2.5 2.5 0 0 1 -.1-.46 4.36 4.36 0 0 1 -.05-.74 4.97 4.97 0 0 1 .13-.89c.13-.46.32-.94.63-1.47l.3-.5c1.34-2.29 2.2-4.02 1.84-6.69-.03-.18-.05-.39-.1-.58 0 .14-.03.26-.06.36v.02a1.43 1.43 0 0 1 -.04.16c-.6 1.74-1.57 3.1-2.9 4.55l-.57.6a72.34 72.34 0 0 1 -1.02 1.03l-.45.43-.52.54c-.12.35-.27.75-.4 1.17l-.16-.06c-2.58-1-4.32-2.35-4.32-2.35a18.88 18.88 0 0 0 4.23 3.79c-.1 1.47.55 2.87 3.48 3.29.5.07 1 .07 1.5.01v-.05z" fill="#000"/></svg>