<svg fill="none" height="60" width="41" xmlns="http://www.w3.org/2000/svg"><g fill="#fff"><path d="m40.042 13.833c-.333-.833-1.166-1.166-2-.833-1.166.5-3.666 1.667-5 2.333-.666.334-.833 1-.666 1.667.166.667 1 1 1.5.667 1.333-.5 3.833-1.334 5.166-1.834.834-.333 1.334-1.166 1-2zm-20.499-5.666c.666 0 1.166-.5 1.166-1.167 0-1.333.167-4.167.167-5.5 0-.833-.667-1.5-1.5-1.5-.834 0-1.5.667-1.5 1.5 0 1.333.166 4.167.166 5.5.334.667.834 1.167 1.5 1.167zm9.5 2.166a98.044 98.044 0 0 1 3.333-4.333c.5-.667.333-1.667-.334-2.167-.666-.5-1.666-.166-2.166.5-.667 1.167-2.167 3.5-2.834 4.667-.333.5-.166 1.333.334 1.667.5.333 1.333.166 1.666-.334zm-17.833 9.334s.332-1.334.5-1.834c1.166-4.166.832-7.833-.5-9.833-.5-.667-1.168-1-2-1.167-.5 0-1.5 0-2.168 2.5-.166.834-3 11-5 18.834 0 0 2-2.667 2.5-3.5 1.834-2.667 3.334-5 6.667-5zm7.333 0h7.833s-.334-.667-.667-1.167c-.666-1-1.833-2.833-3.166-3.833-1.334-1-2.834-1.667-4.167-.834-1.334.667-1.334 2.167-.834 3.5.167.334.834 2 1 2.334zm-12.001 8.333c1.334-2 2.5-3.5 4.5-3.833 2-.334 3.5.833 5.334 2.166.166.167 1.5 1.167 3.333 2.334h2.334c4.333 0 7.833-1.167 9.333-3 .5-.667.833-1.5.666-2.334-.166-.333-.333-1.5-3-1.5h-17.665c-2.334 0-3 1-5.167 4l-5.334 7.334c-.667.833-1 1.333-.834 2.166 0 .334.167.667.5.834 0 .333 4.5-6 6-8.167z"/><path d="m5.542 35.833c1.334-2 2.5-3.5 4.5-3.833s3.5.833 5.334 2.167c1 .833 3.167 2.333 4.167 3 1.666 1.166 2.333 2.333 2.5 3.5 1.5.5 3 .666 4 .333.833-.167 1.5-.667 1.833-1.5.166-.333.666-1.5-1.5-3-1.834-1.333-9.667-7-11.334-8.333-1.833-1.334-2.666-2-3.666-1.834-1 .167-1.667 1-3 2.834-1.834 2.666-5.667 7.833-7.5 10.333-.667.833-1 1.5-.834 2.167 0 .333.167.666.5.833 0 .333 3.834-5 5-6.667z"/><path d="m30.71 29.333c-2 1-4.668 1.667-7.668 1.834 2.334 1.666 4.5 3.333 5 3.666 3.167 2.334 2.667 4.5 2.167 5.667-.666 1.333-1.833 2.333-3.333 2.833-.667.167-1.334.167-2 .167-1 0-2-.167-3-.5-.5 1.167-1.5 2.167-2.834 2.5-2.166.833-5 .5-8-1-.5-.333-.833-1-.5-1.5.334-.5 1-.833 1.5-.5 2.5 1.167 4.667 1.5 6.167.833.667-.333 1.167-.666 1.5-1.333.167-.333.667-1.5-1.5-3-1-.833-3.166-2.333-4.166-3-1.834-1.333-2.667-2-3.667-1.833-1 .166-1.667 1-3 2.833-1.667 2.167-4.834 6.667-6.5 9-.5.667-.667 1.167-.5 1.5 0 .667.333 1.333.833 1.667 2.167 2 7.667 5.666 11.5 8.166 2 1.334 4.667 2.334 8.334 2.334 8.333 0 15-6.834 15-15.167 0-2.167-.5-4.333-1.334-6.167-.5-.666-3.667-8.166-4-9z"/></g></svg>