<?xml version="1.0" encoding="utf-8"?>
<svg width="32" height="32" viewBox="0 0 32 32" fill="none" xmlns="http://www.w3.org/2000/svg">
<path d="M18.984 20.464C19.0973 20.576 19.0973 20.7587 18.984 20.872C18.364 21.488 17.392 21.788 16.0093 21.788L15.9987 21.7853L15.988 21.788C14.6067 21.788 13.6333 21.488 13.0133 20.8707C12.9 20.7587 12.9 20.576 13.0133 20.464C13.1253 20.352 13.3093 20.352 13.4227 20.464C13.928 20.9667 14.7667 21.212 15.988 21.212L15.9987 21.2147L16.0093 21.212C17.2293 21.212 18.068 20.9667 18.5747 20.464C18.688 20.352 18.872 20.352 18.984 20.464ZM14.3973 17.24C14.3973 16.564 13.8453 16.0147 13.168 16.0147C12.4893 16.0147 11.9373 16.564 11.9373 17.24C11.9373 17.9147 12.4893 18.464 13.168 18.464C13.8453 18.4653 14.3973 17.916 14.3973 17.24ZM32 16C32 24.836 24.836 32 16 32C7.164 32 0 24.836 0 16C0 7.164 7.164 0 16 0C24.836 0 32 7.164 32 16ZM25.3333 15.828C25.3333 14.6933 24.4067 13.7707 23.2667 13.7707C22.7107 13.7707 22.2067 13.9933 21.8347 14.3507C20.4267 13.424 18.5213 12.8347 16.4133 12.7587L17.5667 9.12667L20.6907 9.85867L20.6867 9.904C20.6867 10.832 21.4453 11.5867 22.3773 11.5867C23.3093 11.5867 24.0667 10.832 24.0667 9.904C24.0667 8.976 23.3093 8.22133 22.3773 8.22133C21.6613 8.22133 21.052 8.668 20.8053 9.29333L17.4387 8.504C17.292 8.468 17.1413 8.55333 17.096 8.69733L15.8093 12.748C13.6013 12.7747 11.6027 13.3693 10.132 14.3227C9.76267 13.9827 9.27333 13.7693 8.732 13.7693C7.59333 13.7707 6.66667 14.6933 6.66667 15.828C6.66667 16.5827 7.08133 17.236 7.69067 17.5947C7.65067 17.8133 7.624 18.036 7.624 18.2613C7.624 21.3027 11.364 23.7773 15.9613 23.7773C20.5587 23.7773 24.2987 21.3027 24.2987 18.2613C24.2987 18.048 24.276 17.8387 24.24 17.632C24.888 17.284 25.3333 16.6107 25.3333 15.828V15.828ZM18.8373 16.016C18.1587 16.016 17.608 16.5653 17.608 17.2413C17.608 17.916 18.16 18.4653 18.8373 18.4653C19.5147 18.4653 20.0667 17.916 20.0667 17.2413C20.0667 16.5653 19.516 16.016 18.8373 16.016Z" fill="#39B75D"/>
</svg>
