<svg width="57" height="60" fill="none" xmlns="http://www.w3.org/2000/svg"><path d="M49.457 11.663a.588.588 0 00-.567-.482c-.258 0-5.157-.338-5.157-.338s-3.404-3.18-3.817-3.518c-.36-.337-1.134-.24-1.392-.144-.052 0-.774.192-1.908.53-1.135-3.085-3.146-5.928-6.705-5.928h-.31C28.572.53 27.334 0 26.25 0c-8.303 0-12.274 9.687-13.512 14.602-3.197.916-5.518 1.59-5.776 1.687-1.805.53-1.856.578-2.063 2.169C4.693 19.614 0 53.59 0 53.59L36.616 60l19.855-4s-6.962-44-7.014-44.337zM34.553 8.289c-.928.29-1.96.578-3.094.916v-.627c0-1.927-.31-3.47-.723-4.674 1.857.192 3.043 2.12 3.817 4.385zm-6.086-4.048c.516 1.205.826 2.891.826 5.205v.337c-2.012.578-4.23 1.205-6.395 1.831 1.237-4.385 3.558-6.554 5.57-7.373zm-2.475-2.169c.36 0 .722.097 1.083.338-2.63 1.156-5.518 4.096-6.704 9.976-1.754.53-3.456 1.012-5.054 1.445C16.709 9.35 20.06 2.072 25.992 2.072z" fill="#95BF47"/><path d="M48.89 11.181c-.258 0-5.157-.337-5.157-.337s-3.404-3.181-3.816-3.518c-.155-.145-.31-.193-.516-.241L36.616 60l19.855-4s-6.962-44-7.014-44.289c-.051-.337-.36-.482-.567-.53z" fill="#5E8E3E"/><path d="M29.86 21.446l-2.424 6.795s-2.166-1.06-4.744-1.06c-3.868 0-4.023 2.265-4.023 2.843 0 3.084 8.664 4.29 8.664 11.566 0 5.735-3.868 9.398-9.128 9.398-6.292 0-9.49-3.663-9.49-3.663l1.703-5.205s3.3 2.65 6.085 2.65c1.805 0 2.579-1.349 2.579-2.312 0-4.049-7.117-4.241-7.117-10.892 0-5.59 4.28-11.036 12.996-11.036 3.249 0 4.9.916 4.9.916z" fill="#fff"/></svg>