<svg height="643" width="744" xmlns="http://www.w3.org/2000/svg" xmlns:xlink="http://www.w3.org/1999/xlink"><mask id="a" fill="#fff"><path d="m.45.64h224.81v209.33h-224.81z" fill="#fff" fill-rule="evenodd"/></mask><mask id="b" fill="#fff"><path d="m.69.59h35.74v39.41h-35.74z" fill="#fff" fill-rule="evenodd"/></mask><mask id="c" fill="#fff"><path d="m.67.29h23.43v35.63h-23.43z" fill="#fff" fill-rule="evenodd"/></mask><g fill="none" fill-rule="evenodd"><g fill="#030303"><path d="m267.52 287.87 112.93-112.93a40.4 40.4 0 0 1 28.76-11.9 40.38 40.38 0 0 1 28.75 11.89l8.8 8.8 17.6-17.6-8.8-8.8a65.1 65.1 0 0 0 -46.35-19.17c-17.53 0-34 6.81-46.36 19.18l-112.93 112.93z"/><path d="m225.26 77.87-17.6-17.6-112.91 112.93a40.72 40.72 0 0 1 -57.52 0 40.73 40.73 0 0 1 0-57.52l97.44-97.44-17.6-17.6-97.44 97.44a65.64 65.64 0 0 0 0 92.72 65.1 65.1 0 0 0 46.35 19.17c17.53 0 34-6.8 46.36-19.17z" mask="url(#a)" transform="translate(193 134.36)"/><path d="m530.67 232.44a65.11 65.11 0 0 0 -46.35-19.16c-17.53 0-34 6.8-46.36 19.17l-112.93 112.93 17.6 17.6 112.93-112.93a40.72 40.72 0 0 1 57.52 0 40.4 40.4 0 0 1 11.89 28.75 40.4 40.4 0 0 1 -11.9 28.76l-97.44 97.45 17.6 17.6 97.44-97.45a65.64 65.64 0 0 0 0-92.72"/><path d="m475.78 269.74-112.93 112.93a40.72 40.72 0 0 1 -57.52 0l-8.8-8.8-17.6 17.6 8.8 8.8a65.1 65.1 0 0 0 46.36 19.17c17.53 0 34-6.8 46.36-19.17l112.93-112.93z"/></g><path d="m182.06 495.06a6.72 6.72 0 0 0 2.55 4.2c1.34 1 3.1 1.5 5.29 1.5 2.15 0 3.81-.49 4.98-1.48 1.18-1 1.77-2.3 1.77-3.92 0-.8-.16-1.47-.47-2.01-.32-.55-.76-1.01-1.32-1.4a8.2 8.2 0 0 0 -2.08-.96c-.83-.27-1.76-.55-2.78-.84l-2.68-.75a24.12 24.12 0 0 1 -4.27-1.56 13.21 13.21 0 0 1 -3.23-2.16 8.37 8.37 0 0 1 -2.73-6.6 9.25 9.25 0 0 1 3.42-7.35c1.1-.9 2.42-1.6 3.98-2.1a16.8 16.8 0 0 1 5.26-.78c3.67 0 6.58.87 8.73 2.6a10.24 10.24 0 0 1 3.78 6.98l-5.96.5a5.98 5.98 0 0 0 -2.18-3.48c-1.1-.82-2.62-1.24-4.57-1.24-1.82 0-3.24.43-4.27 1.27a4.02 4.02 0 0 0 -1.54 3.25c0 .76.15 1.4.45 1.91s.73.96 1.29 1.34 1.25.72 2.06 1.02 1.73.61 2.75.94l2.54.8c1.58.5 3.01 1.01 4.29 1.56 1.27.54 2.36 1.2 3.25 1.96.9.76 1.58 1.67 2.06 2.73s.72 2.37.72 3.92a10.02 10.02 0 0 1 -3.77 8.04c-1.2.96-2.6 1.7-4.25 2.23-1.63.53-3.45.8-5.43.8-3.67 0-6.73-.86-9.18-2.58s-3.96-4.32-4.52-7.8z" fill="#000"/><path d="m18.46 5.95c-1.79 0-3.38.33-4.79 1-1.4.65-2.6 1.57-3.57 2.74a12.3 12.3 0 0 0 -2.24 4.16c-.5 1.6-.76 3.35-.76 5.23s.26 3.63.79 5.25a12.85 12.85 0 0 0 2.26 4.21 10.42 10.42 0 0 0 8.36 3.82c1.79 0 3.38-.32 4.79-.97 1.4-.64 2.6-1.54 3.57-2.7a12.28 12.28 0 0 0 2.26-4.18c.53-1.64.8-3.43.8-5.38 0-1.92-.27-3.68-.8-5.3s-1.28-3-2.26-4.16a10.36 10.36 0 0 0 -3.6-2.73 11.3 11.3 0 0 0 -4.8-.99m.03-5.35c2.68 0 5.13.46 7.35 1.37 2.21.9 4.1 2.18 5.65 3.82a17.3 17.3 0 0 1 3.63 5.88c.86 2.28 1.29 4.78 1.29 7.5 0 2.8-.46 5.35-1.37 7.61a17 17 0 0 1 -3.9 5.88l4.77 5.61v1.73h-6.05l-3.33-4.07a18.98 18.98 0 0 1 -7.99 1.69c-2.75 0-5.22-.46-7.42-1.37a15.94 15.94 0 0 1 -5.6-3.82 17.18 17.18 0 0 1 -3.58-5.86 21.1 21.1 0 0 1 -1.27-7.42c0-2.7.43-5.2 1.27-7.47a16.47 16.47 0 0 1 9.23-9.7c2.21-.92 4.65-1.38 7.33-1.38" fill="#000" mask="url(#b)" transform="translate(210 468.36)"/><path d="m270 500.96c2.55 0 4.54-.78 5.96-2.35s2.13-3.98 2.13-7.22v-21.74h6.26v21.88c0 2.59-.33 4.8-1 6.63a11.59 11.59 0 0 1 -2.83 4.52 11.08 11.08 0 0 1 -4.51 2.58c-1.79.54-3.8.82-6 .82-2.26 0-4.27-.28-6.04-.82a11.09 11.09 0 0 1 -4.49-2.58 11.59 11.59 0 0 1 -2.83-4.52 19.6 19.6 0 0 1 -1-6.63v-21.88h6.26v21.74c0 3.24.71 5.65 2.14 7.22 1.42 1.57 3.4 2.35 5.95 2.35m31.86-11.21h11.77l-1.94-5.66a619.67 619.67 0 0 1 -3.08-9.08h-1.53l-.6 1.68-.67 1.9c-.25.69-.52 1.48-.82 2.37-.3.9-.66 1.94-1.1 3.13zm-11.26 13.8 12.65-33.9h9.38l12.51 33.9v1.73h-6.14l-3.58-10.17h-15.43l-3.57 10.17h-5.81v-1.73zm48.59-17.62h5.4c2.39 0 4.27-.44 5.64-1.3 1.37-.88 2.06-2.3 2.06-4.26 0-2-.7-3.4-2.08-4.18-1.4-.79-3.26-1.18-5.61-1.18h-5.41zm20.9 19.35h-6.01l-10.87-14h-4.02v14h-6.16v-35.63h11.57c1.82 0 3.55.12 5.18.37 1.64.25 3.12.82 4.45 1.71 2.8 1.85 4.22 4.65 4.22 8.39 0 1.62-.24 3.03-.73 4.24a9.63 9.63 0 0 1 -4.66 5.13c-1.04.53-2.13.93-3.25 1.2l10.27 12.85v1.74zm7.93-35.63h23.08v5.46h-16.97v9.33h15.78v5.36h-15.78v10.02h17.32v5.46h-23.43zm37.23 25.41a6.72 6.72 0 0 0 2.55 4.2c1.34 1 3.1 1.5 5.29 1.5 2.15 0 3.81-.49 4.99-1.48 1.17-1 1.76-2.3 1.76-3.92 0-.8-.16-1.47-.47-2.01-.32-.55-.76-1.01-1.32-1.4a8.2 8.2 0 0 0 -2.08-.96c-.83-.27-1.76-.55-2.78-.84l-2.68-.75a24.13 24.13 0 0 1 -4.27-1.56 13.19 13.19 0 0 1 -3.23-2.16 8.36 8.36 0 0 1 -2.73-6.6 9.23 9.23 0 0 1 3.42-7.35c1.1-.9 2.42-1.6 3.98-2.1a16.8 16.8 0 0 1 5.26-.78c3.67 0 6.58.87 8.74 2.6a10.24 10.24 0 0 1 3.77 6.98l-5.96.5a5.97 5.97 0 0 0 -2.18-3.48c-1.1-.82-2.62-1.24-4.57-1.24-1.82 0-3.24.43-4.27 1.27a4.02 4.02 0 0 0 -1.54 3.25c0 .76.15 1.4.45 1.91s.73.96 1.3 1.34c.55.38 1.24.72 2.05 1.02s1.73.61 2.76.94l2.53.8a45 45 0 0 1 4.3 1.56c1.26.54 2.35 1.2 3.24 1.96.9.76 1.58 1.67 2.06 2.73a9.5 9.5 0 0 1 .72 3.92 10.03 10.03 0 0 1 -3.77 8.04c-1.2.96-2.6 1.7-4.24 2.23s-3.45.8-5.44.8c-3.67 0-6.73-.86-9.18-2.58s-3.96-4.32-4.52-7.8zm36.23-8.84h5.95c1.1 0 2.1-.09 3-.27.92-.18 1.71-.48 2.39-.9.68-.43 1.2-1 1.59-1.73.38-.72.57-1.6.57-2.66 0-1.08-.2-1.99-.57-2.72a4.48 4.48 0 0 0 -1.57-1.75 6.71 6.71 0 0 0 -2.35-.91c-.91-.18-1.9-.27-2.96-.27h-6.05zm-6.2-16.57h13c2.41 0 4.44.28 6.08.84s2.96 1.34 3.97 2.33c1 1 1.74 2.16 2.18 3.5.45 1.34.67 2.79.67 4.35 0 1.85-.3 3.46-.92 4.83a8.69 8.69 0 0 1 -2.65 3.4c-1.16.9-2.57 1.57-4.22 2.01-1.66.45-3.52.67-5.6.67h-6.31v13.7h-6.2zm38.91 20.1h11.76l-1.94-5.66a625 625 0 0 1 -3.07-9.08h-1.54a1131.7 1131.7 0 0 1 -1.27 3.57l-.82 2.38c-.3.9-.66 1.94-1.09 3.13zm-11.27 13.8 12.66-33.9h9.38l12.5 33.9v1.73h-6.15l-3.57-10.17h-15.44l-3.57 10.17h-5.81zm72.36-7.7c-.56 1.4-1.3 2.7-2.2 3.93a14.68 14.68 0 0 1 -3.3 3.22 15.87 15.87 0 0 1 -4.5 2.18c-1.7.53-3.6.8-5.68.8-2.65 0-5.05-.47-7.22-1.4a16.22 16.22 0 0 1 -9.1-9.7 21.18 21.18 0 0 1 -1.25-7.37c0-2.64.42-5.1 1.25-7.37a16.63 16.63 0 0 1 9.15-9.78 18.02 18.02 0 0 1 7.27-1.4c3.9 0 7.17.9 9.8 2.72a14.7 14.7 0 0 1 5.59 7.25l-6.3 1.24a10.46 10.46 0 0 0 -3.6-4.3 9.72 9.72 0 0 0 -5.6-1.56 10.05 10.05 0 0 0 -8.16 3.8 12.63 12.63 0 0 0 -2.15 4.21 17.6 17.6 0 0 0 -.75 5.2 17 17 0 0 0 .77 5.21c.51 1.6 1.26 2.98 2.23 4.16a10.32 10.32 0 0 0 8.32 3.73c2.31 0 4.22-.56 5.73-1.69 1.5-1.12 2.67-2.5 3.5-4.12z" fill="#000"/><path d="m.67.29h23.08v5.46h-16.97v9.33h15.78v5.36h-15.78v10.02h17.32v5.46h-23.43z" fill="#000" mask="url(#c)" transform="translate(543 469.36)"/></g></svg>