<svg width="24" height="24" viewBox="0 0 24 24" fill="none" xmlns="http://www.w3.org/2000/svg">
<path fill-rule="evenodd" clip-rule="evenodd" d="M24 12C24 18.6274 18.6274 24 12 24C5.37258 24 0 18.6274 0 12C0 5.37258 5.37258 0 12 0C18.6274 0 24 5.37258 24 12ZM14.7452 4.53195L14.7453 4.53275H14.746C14.8389 5.03052 15.032 5.50423 15.3135 5.92516C15.595 6.34609 15.959 6.70548 16.3836 6.98155C16.9882 7.37684 17.6951 7.58704 18.4176 7.58635L18.4176 10.27C17.0774 10.2719 15.7706 9.85207 14.6824 9.06995V14.5256C14.6831 15.4295 14.4357 16.3163 13.9671 17.0894C13.4985 17.8624 12.8266 18.4919 12.0248 18.9093C11.2229 19.3267 10.3219 19.5159 9.4199 19.4563C8.5179 19.3968 7.64956 19.0907 6.90955 18.5716C6.00132 17.937 5.33291 17.0154 5.01185 15.955C4.69078 14.8946 4.73572 13.757 5.13943 12.7253C5.54315 11.6935 6.28217 10.8275 7.23764 10.2666C8.1931 9.70565 9.30946 9.48241 10.4072 9.63275V10.2688L10.4088 10.2688V12.374C10.1933 12.3056 9.96875 12.2706 9.74275 12.27C9.23816 12.2698 8.74807 12.4388 8.35086 12.75C7.95366 13.0612 7.67227 13.4966 7.5517 13.9866C7.43113 14.4766 7.47833 14.9928 7.68577 15.4528C7.89321 15.9128 8.2493 16.2904 8.69636 16.5244C9.03351 16.7019 9.41021 16.7909 9.79116 16.7832C10.1721 16.7754 10.5449 16.6711 10.8745 16.48C11.2042 16.289 11.48 16.0173 11.676 15.6906C11.8721 15.3639 11.982 14.9927 11.9956 14.612L12 3.85195H14.6816C14.6818 4.08009 14.7031 4.30772 14.7452 4.53195Z" fill="#3AB85E"/>
</svg>
