<svg width="48" height="19" fill="none" xmlns="http://www.w3.org/2000/svg"><g clip-path="url(#clip0)"><path d="M27.473.355c-.926.463-1.328 1.327-1.328 3.671 0 0 .463-.462 1.204-.74.54-.2.926-.463 1.204-.663.803-.602.926-1.327.926-2.592-.015 0-1.28-.077-2.006.324z" fill="#FBBD71"/><path d="M21.808.896c-.802.663-1.003 1.805-1.003 1.805l-2.593 9.935-2.13-8.13c-.2-.864-.602-1.929-1.204-2.67-.74-.94-2.284-1.002-2.469-1.002-.139 0-1.667.062-2.47 1.003-.601.74-1.003 1.805-1.203 2.669l-2.007 8.13L4.136 2.7s-.2-1.065-1.003-1.805C1.868-.246 0 .032 0 .032l4.939 18.59s1.605.138 2.408-.263c1.065-.54 1.605-.926 2.207-3.47.602-2.269 2.207-8.871 2.33-9.334.062-.2.2-.802.602-.802.401 0 .54.54.602.802.139.463 1.729 7.065 2.33 9.333.664 2.53 1.127 2.931 2.208 3.471.802.401 2.407.262 2.407.262L24.942.031s-1.868-.261-3.134.865zm7.656 2.128s-.34.463-1.003.864c-.464.262-.865.4-1.328.663-.802.401-1.003.802-1.003 1.404v12.603s1.265.14 2.068-.262c1.065-.54 1.266-1.064 1.266-3.332V3.024zm12.27 6.34L48 .093s-2.593-.463-3.936.74c-.864.74-1.728 2.129-1.728 2.129l-2.27 3.332c-.138.2-.262.34-.462.34s-.401-.201-.463-.34l-2.269-3.332s-.926-1.327-1.729-2.129c-1.327-1.203-3.935-.74-3.935-.74l6.065 9.256-6.204 9.256s2.732.34 4.074-.864c.865-.74 1.667-2.005 1.667-2.005l2.27-3.333c.138-.2.262-.34.462-.34s.401.201.463.34l2.269 3.332s.864 1.265 1.667 2.006c1.327 1.203 3.997.864 3.997.864l-6.204-9.24z" fill="#000"/></g><defs><clipPath id="clip0"><path fill="#fff" d="M0 0h48v18.667H0z"/></clipPath></defs></svg>